# xmcd
#
# Track frame offsets:
# 150
# 14725
# 26130
# 36962
# 46579
# 61849
# 71409
# 88044
# 97611
# 107896
# 121140
# 136266
# 146590
# 161968
# 179521
# 195979
# 210519
# 222385
# 232672
# 242503
# 256126
# 267063
# 279330
# 290879
# 303166
# 320946
# 334194
# 345389
#
# Disc length: 4766 seconds
#
# Revision: 3
# Processed by: cddbd v1.5.2PL0 Copyright (c) Steve Scherf et al.
# Submitted via: Axialis_AX_CDPlayer 2.6
#
DISCID=94129c1c
DTITLE=JEANNIE C. RILEY - HARPER VALLEY P.T.A.
DYEAR=2013
DGENRE=Country
TTITLE0=HARPER VALLEY P.T.A 
TTITLE1=WIDOW JONES
TTITLE2=NO BRASS BAND
TTITLE3=MR. HARPER
TTITLE4=RUN, JEANNIE, RUN
TTITLE5=SHED ME NO TEARS
TTITLE6=THE COTTON PATCH
TTITLE7=SIPPIN' SHIRLEY THOMPSON
TTITLE8=THE LITTLE TOWN SQUARE
TTITLE9=THE BALLAD OF LOUZISE
TTITLE10=SATAN PLACE
TTITLE11=YESTERDAY ALL DAY LONG TODAY
TTITLE12=YEARBOOKS AND YESTERDAYS
TTITLE13=WHAT WAS HER NAME?
TTITLE14=EDNA BURGOO
TTITLE15=MY SCRAPBOOK
TTITLE16=THE PART OF HONEY
TTITLE17=WHATEVER HAPPENED TO CHARLIE BROWN?
TTITLE18=THE GIRL MOST LIKELY
TTITLE19=BACK TO SCHOOL
TTITLE20=THAT'S HOW IT IS WITH HIM AND ME
TTITLE21=TEARDROPS ON PAGE 43
TTITLE22=BOX OF MEMORIES
TTITLE23=A TASTE OF TEARS
TTITLE24=THE RIB
TTITLE25=SUNDAY AFTER CHURCH
TTITLE26=THE ARTIST
TTITLE27=I'M ONLY A WOMAN
EXTD=
EXTT0=
EXTT1=
EXTT2=
EXTT3=
EXTT4=
EXTT5=
EXTT6=
EXTT7=
EXTT8=
EXTT9=
EXTT10=
EXTT11=
EXTT12=
EXTT13=
EXTT14=
EXTT15=
EXTT16=
EXTT17=
EXTT18=
EXTT19=
EXTT20=
EXTT21=
EXTT22=
EXTT23=
EXTT24=
EXTT25=
EXTT26=
EXTT27=
PLAYORDER=
